<svg width="995" height="924" viewBox="0 0 995 924" fill="none" xmlns="http://www.w3.org/2000/svg">
    <g filter="url(#filter0_d_6386_11155)">
    <path d="M497.588 231.98L763.118 691.892H232.058L497.588 231.98Z" fill="black"/>
    <path d="M234.488 690.488L497.588 234.787L760.687 690.488H234.488Z" stroke="#1CBD3F" stroke-width="2.80621"/>
    </g>
    <path d="M448.575 251.727C470.359 213.996 524.819 213.996 546.603 251.727L770.524 639.57C792.309 677.301 765.078 724.465 721.51 724.465H273.668C230.1 724.465 202.87 677.301 224.654 639.57L448.575 251.727Z" stroke="#1CBD3F" stroke-opacity="0.31" stroke-width="2.80621"/>
    <path d="M439.914 160.543C465.547 116.145 529.63 116.145 555.263 160.543L853.822 677.663C879.455 722.061 847.414 777.558 796.147 777.558H199.029C147.763 777.558 115.721 722.061 141.354 677.663L439.914 160.543Z" stroke="#1CBD3F" stroke-opacity="0.2" stroke-width="2.80621"/>
    <path d="M378.425 146.202C431.387 54.4703 563.789 54.4703 616.75 146.202L896.986 631.583C949.947 723.315 883.745 837.979 777.823 837.979H217.353C111.43 837.979 45.2291 723.315 98.1901 631.583L378.425 146.202Z" stroke="#1CBD3F" stroke-opacity="0.12" stroke-width="2.80621"/>
    <path d="M559.678 580.049L502.813 580.049C461.863 580.049 428.666 546.852 428.666 505.902L428.666 494.642C428.666 459.232 457.372 430.526 492.781 430.526C533.503 430.526 566.514 463.537 566.514 504.259L566.514 505.902L566.514 573.213C566.514 576.989 563.453 580.049 559.678 580.049Z" fill="#1CBD3F"/>
    <path d="M536.978 543.589C539.603 543.589 541.731 541.461 541.731 538.835L541.731 495.785C541.731 469.245 520.217 447.73 493.677 447.73C467.276 447.73 445.873 469.133 445.873 495.534C445.873 522.074 467.388 543.589 493.928 543.589H536.978Z" fill="white"/>
    <path fill-rule="evenodd" clip-rule="evenodd" d="M554.839 495.784L554.839 538.835C554.839 548.7 546.842 556.697 536.977 556.697H493.927C460.147 556.697 432.764 529.313 432.764 495.534C432.764 461.893 460.035 434.621 493.676 434.621C527.456 434.621 554.839 462.005 554.839 495.784ZM541.731 538.835C541.731 541.46 539.602 543.588 536.977 543.588H493.927C467.387 543.588 445.872 522.073 445.872 495.534C445.872 469.132 467.275 447.73 493.676 447.73C520.216 447.73 541.731 469.245 541.731 495.784L541.731 538.835Z" fill="black"/>
    <rect x="289.387" y="211.656" width="416.402" height="86.9316" rx="43.4658" fill="#1CBD3F"/>
    <path d="M406.953 265.057H411.734C416.776 265.057 420.992 261.928 420.992 255.234C420.992 248.54 416.82 245.367 411.778 245.367H406.953V265.057ZM411.952 270.621H400.955V239.804H411.995C420.775 239.804 427.208 245.498 427.208 255.234C427.208 264.971 420.732 270.621 411.952 270.621ZM430.669 264.797C430.669 260.972 433.495 258.842 437.059 258.32L442.318 257.538C443.535 257.364 443.926 256.755 443.926 256.017C443.926 254.495 442.753 253.235 440.319 253.235C437.798 253.235 436.407 254.843 436.233 256.712L431.104 255.625C431.452 252.279 434.538 248.584 440.275 248.584C447.056 248.584 449.577 252.409 449.577 256.712V267.231C449.577 268.361 449.707 269.882 449.838 270.621H444.535C444.405 270.056 444.318 268.882 444.318 268.057C443.231 269.752 441.188 271.23 438.015 271.23C433.451 271.23 430.669 268.144 430.669 264.797ZM439.232 266.926C441.666 266.926 443.926 265.753 443.926 261.971V261.015L439.102 261.754C437.624 261.971 436.45 262.797 436.45 264.449C436.45 265.709 437.363 266.926 439.232 266.926ZM462.405 242.846V249.236H466.708V254.365H462.405V263.319C462.405 265.188 463.275 265.796 464.926 265.796C465.622 265.796 466.404 265.709 466.708 265.623V270.404C466.187 270.621 465.144 270.925 463.448 270.925C459.276 270.925 456.668 268.448 456.668 264.319V254.365H452.799V249.236H453.886C456.146 249.236 457.189 247.758 457.189 245.846V242.846H462.405ZM470.442 264.797C470.442 260.972 473.268 258.842 476.832 258.32L482.091 257.538C483.308 257.364 483.699 256.755 483.699 256.017C483.699 254.495 482.526 253.235 480.092 253.235C477.571 253.235 476.18 254.843 476.006 256.712L470.877 255.625C471.225 252.279 474.311 248.584 480.048 248.584C486.829 248.584 489.35 252.409 489.35 256.712V267.231C489.35 268.361 489.48 269.882 489.611 270.621H484.308C484.177 270.056 484.091 268.882 484.091 268.057C483.004 269.752 480.961 271.23 477.788 271.23C473.224 271.23 470.442 268.144 470.442 264.797ZM479.005 266.926C481.439 266.926 483.699 265.753 483.699 261.971V261.015L478.875 261.754C477.397 261.971 476.223 262.797 476.223 264.449C476.223 265.709 477.136 266.926 479.005 266.926ZM512.349 265.057H517.13C522.172 265.057 526.389 261.928 526.389 255.234C526.389 248.54 522.216 245.367 517.174 245.367H512.349V265.057ZM517.348 270.621H506.351V239.804H517.391C526.171 239.804 532.604 245.498 532.604 255.234C532.604 264.971 526.128 270.621 517.348 270.621ZM557.226 270.621L554.661 263.58H542.143L539.578 270.621H533.232L545.055 239.804H552.01L563.745 270.621H557.226ZM548.402 246.454L544.142 258.103H552.662L548.402 246.454ZM570.591 255.191C570.591 262.145 575.459 265.449 580.197 265.449C584.978 265.449 589.847 262.145 589.847 255.191C589.847 248.236 584.978 244.933 580.197 244.933C575.459 244.933 570.591 248.236 570.591 255.191ZM564.376 255.234C564.376 245.281 571.852 239.152 580.197 239.152C588.586 239.152 596.062 245.281 596.062 255.234C596.062 265.144 588.586 271.273 580.197 271.273C571.852 271.273 564.376 265.144 564.376 255.234Z" fill="white"/>
    <rect x="68.6211" y="656.559" width="393.8" height="86.9316" rx="43.4658" fill="#1CBD3F"/>
    <path d="M148.874 715.523H142.962V693.921L134.095 715.523H129.097L120.23 694.095V715.523H114.492V684.706H122.403L131.661 706.961L140.702 684.706H148.874V715.523ZM164.965 710.916C167.79 710.916 170.398 708.873 170.398 704.831C170.398 700.789 167.79 698.746 164.965 698.746C162.139 698.746 159.531 700.789 159.531 704.831C159.531 708.83 162.139 710.916 164.965 710.916ZM164.965 693.486C171.354 693.486 176.179 698.224 176.179 704.831C176.179 711.394 171.354 716.175 164.965 716.175C158.575 716.175 153.75 711.394 153.75 704.831C153.75 698.224 158.575 693.486 164.965 693.486ZM201.128 684.054V711.655C201.128 713.089 201.214 714.654 201.301 715.523H195.781C195.694 715.089 195.564 714.046 195.564 713.046C194.608 714.741 192.434 716.045 189.566 716.045C183.48 716.045 179.134 711.264 179.134 704.787C179.134 698.528 183.35 693.617 189.392 693.617C193.086 693.617 194.825 695.138 195.434 696.268V684.054H201.128ZM184.958 704.787C184.958 708.612 187.218 710.873 190.261 710.873C193.217 710.873 195.52 708.612 195.52 704.744C195.52 700.919 193.217 698.789 190.261 698.789C187.305 698.789 184.958 700.962 184.958 704.787ZM211.615 702.397H221.178C221.091 700.267 219.7 698.181 216.396 698.181C213.397 698.181 211.745 700.441 211.615 702.397ZM221.743 707.96L226.567 709.395C225.481 713.089 222.09 716.175 216.831 716.175C210.963 716.175 205.791 711.959 205.791 704.744C205.791 697.92 210.833 693.486 216.309 693.486C222.916 693.486 226.872 697.702 226.872 704.57C226.872 705.396 226.785 706.265 226.785 706.352H211.485C211.615 709.177 214.006 711.22 216.874 711.22C219.569 711.22 221.047 709.873 221.743 707.96ZM237.205 715.523H231.424V684.054H237.205V715.523ZM258.958 700.093C258.958 707.048 263.826 710.351 268.564 710.351C273.345 710.351 278.213 707.048 278.213 700.093C278.213 693.139 273.345 689.835 268.564 689.835C263.826 689.835 258.958 693.139 258.958 700.093ZM252.742 700.137C252.742 690.183 260.218 684.054 268.564 684.054C276.953 684.054 284.429 690.183 284.429 700.137C284.429 710.047 276.953 716.175 268.564 716.175C260.218 716.175 252.742 710.047 252.742 700.137ZM310.145 691.791V694.138H314.97V699.093H310.145V715.523H304.364V699.093H296.105V715.523H290.281V699.093H286.717V694.138H290.281V691.704C290.281 686.879 293.324 683.75 298.061 683.75C299.278 683.75 300.452 683.967 300.93 684.185V689.053C300.626 688.966 300.061 688.835 299.105 688.835C297.844 688.835 296.105 689.4 296.105 691.791V694.138H304.364V691.704C304.364 686.879 307.407 683.75 312.144 683.75C313.361 683.75 314.535 683.967 315.013 684.185V689.053C314.709 688.966 314.144 688.835 313.188 688.835C311.927 688.835 310.188 689.4 310.145 691.791ZM322.954 702.397H332.516C332.429 700.267 331.038 698.181 327.735 698.181C324.736 698.181 323.084 700.441 322.954 702.397ZM333.081 707.96L337.906 709.395C336.819 713.089 333.429 716.175 328.17 716.175C322.302 716.175 317.129 711.959 317.129 704.744C317.129 697.92 322.171 693.486 327.648 693.486C334.255 693.486 338.21 697.702 338.21 704.57C338.21 705.396 338.123 706.265 338.123 706.352H322.823C322.954 709.177 325.344 711.22 328.213 711.22C330.908 711.22 332.386 709.873 333.081 707.96ZM355.802 694.051V699.876C355.15 699.745 354.585 699.702 354.064 699.702C351.108 699.702 348.544 701.136 348.544 705.744V715.523H342.763V694.138H348.37V697.311C349.674 694.486 352.629 693.964 354.455 693.964C354.933 693.964 355.368 694.008 355.802 694.051ZM365.65 715.523H359.869V694.138H365.65V715.523ZM359.173 687.14C359.173 685.141 360.782 683.533 362.738 683.533C364.737 683.533 366.302 685.141 366.302 687.14C366.302 689.053 364.737 690.661 362.738 690.661C360.782 690.661 359.173 689.053 359.173 687.14ZM377.62 703.223V715.523H371.839V694.138H377.446V696.79C378.75 694.573 381.314 693.573 383.618 693.573C388.921 693.573 391.355 697.355 391.355 702.049V715.523H385.574V703.049C385.574 700.658 384.4 698.789 381.619 698.789C379.098 698.789 377.62 700.745 377.62 703.223ZM395.701 716.697L400.917 715.306C401.308 717.653 403.177 719.348 405.915 719.348C409.567 719.348 411.609 717.523 411.609 713.394V711.829C410.74 713.22 408.741 714.567 405.655 714.567C399.961 714.567 395.701 710.177 395.701 704.179C395.701 698.528 399.787 693.747 405.655 693.747C409.045 693.747 411.001 695.225 411.74 696.659V694.138H417.303V713.22C417.303 719.088 414.13 724.434 406.089 724.434C400.221 724.434 396.309 720.783 395.701 716.697ZM406.654 709.612C409.61 709.612 411.696 707.482 411.696 704.179C411.696 700.875 409.436 698.789 406.654 698.789C403.786 698.789 401.525 700.875 401.525 704.179C401.525 707.526 403.655 709.612 406.654 709.612Z" fill="white"/>
    <rect x="504" y="657" width="423" height="86" rx="43" fill="#1CBD3F"/>
    <path d="M535.983 715.5H529.898V684.683H535.983V715.5ZM548.36 703.199V715.5H542.579V694.115H548.186V696.766C549.49 694.549 552.055 693.55 554.358 693.55C559.661 693.55 562.095 697.331 562.095 702.026V715.5H556.314V703.025C556.314 700.635 555.141 698.766 552.359 698.766C549.838 698.766 548.36 700.722 548.36 703.199ZM577.873 688.812C576.569 688.812 574.874 689.377 574.874 691.768V694.115H579.698V699.07H574.874V715.5H569.049V699.07H565.485V694.115H569.049V691.681C569.049 686.856 572.092 683.726 576.83 683.726C578.047 683.726 579.22 683.944 579.698 684.161V689.029C579.394 688.942 578.829 688.812 577.873 688.812ZM587.205 702.373H596.768C596.681 700.243 595.29 698.157 591.986 698.157C588.987 698.157 587.335 700.417 587.205 702.373ZM597.333 707.937L602.157 709.371C601.071 713.066 597.68 716.152 592.421 716.152C586.553 716.152 581.381 711.936 581.381 704.72C581.381 697.896 586.423 693.463 591.899 693.463C598.506 693.463 602.462 697.679 602.462 704.547C602.462 705.372 602.375 706.242 602.375 706.329H587.075C587.205 709.154 589.596 711.197 592.464 711.197C595.159 711.197 596.637 709.849 597.333 707.937ZM620.054 694.028V699.852C619.402 699.722 618.837 699.678 618.315 699.678C615.359 699.678 612.795 701.113 612.795 705.72V715.5H607.014V694.115H612.621V697.288C613.925 694.463 616.881 693.941 618.706 693.941C619.184 693.941 619.619 693.984 620.054 694.028ZM628.124 702.373H637.687C637.6 700.243 636.209 698.157 632.905 698.157C629.906 698.157 628.254 700.417 628.124 702.373ZM638.252 707.937L643.076 709.371C641.99 713.066 638.599 716.152 633.34 716.152C627.472 716.152 622.3 711.936 622.3 704.72C622.3 697.896 627.342 693.463 632.818 693.463C639.425 693.463 643.381 697.679 643.381 704.547C643.381 705.372 643.294 706.242 643.294 706.329H627.994C628.124 709.154 630.515 711.197 633.383 711.197C636.078 711.197 637.556 709.849 638.252 707.937ZM653.714 703.199V715.5H647.933V694.115H653.54V696.766C654.844 694.549 657.408 693.55 659.712 693.55C665.015 693.55 667.449 697.331 667.449 702.026V715.5H661.668V703.025C661.668 700.635 660.495 698.766 657.713 698.766C655.192 698.766 653.714 700.722 653.714 703.199ZM682.922 698.809C679.967 698.809 677.489 700.939 677.489 704.807C677.489 708.676 680.01 710.849 682.966 710.849C685.921 710.849 687.399 708.893 687.877 707.241L692.963 708.937C692.007 712.501 688.66 716.152 682.966 716.152C676.663 716.152 671.708 711.371 671.708 704.807C671.708 698.201 676.576 693.463 682.792 693.463C688.616 693.463 691.92 697.07 692.832 700.678L687.66 702.417C687.138 700.635 685.791 698.809 682.922 698.809ZM701.218 702.373H710.78C710.693 700.243 709.303 698.157 705.999 698.157C703 698.157 701.348 700.417 701.218 702.373ZM711.345 707.937L716.17 709.371C715.084 713.066 711.693 716.152 706.434 716.152C700.566 716.152 695.393 711.936 695.393 704.72C695.393 697.896 700.436 693.463 705.912 693.463C712.519 693.463 716.474 697.679 716.474 704.547C716.474 705.372 716.387 706.242 716.387 706.329H701.088C701.218 709.154 703.609 711.197 706.477 711.197C709.172 711.197 710.65 709.849 711.345 707.937ZM758.497 715.5H752.195L738.199 693.637V715.5H732.201V684.683H739.677L752.499 705.068V684.683H758.497V715.5ZM769.176 702.373H778.738C778.651 700.243 777.26 698.157 773.957 698.157C770.958 698.157 769.306 700.417 769.176 702.373ZM779.303 707.937L784.128 709.371C783.041 713.066 779.651 716.152 774.392 716.152C768.524 716.152 763.351 711.936 763.351 704.72C763.351 697.896 768.393 693.463 773.87 693.463C780.477 693.463 784.432 697.679 784.432 704.547C784.432 705.372 784.345 706.242 784.345 706.329H769.045C769.176 709.154 771.566 711.197 774.435 711.197C777.13 711.197 778.608 709.849 779.303 707.937ZM796.113 687.725V694.115H800.416V699.244H796.113V708.198C796.113 710.067 796.982 710.675 798.634 710.675C799.329 710.675 800.112 710.588 800.416 710.501V715.283C799.894 715.5 798.851 715.804 797.156 715.804C792.983 715.804 790.375 713.327 790.375 709.197V699.244H786.507V694.115H787.594C789.854 694.115 790.897 692.637 790.897 690.724V687.725H796.113ZM817.496 694.115H823.581L828.189 707.893L832.144 694.115H837.882L831.188 715.5H825.407L820.408 700.895L815.497 715.5H809.629L802.805 694.115H808.89L812.845 707.85L817.496 694.115ZM850.546 710.893C853.371 710.893 855.979 708.85 855.979 704.807C855.979 700.765 853.371 698.722 850.546 698.722C847.72 698.722 845.112 700.765 845.112 704.807C845.112 708.806 847.72 710.893 850.546 710.893ZM850.546 693.463C856.935 693.463 861.76 698.201 861.76 704.807C861.76 711.371 856.935 716.152 850.546 716.152C844.156 716.152 839.332 711.371 839.332 704.807C839.332 698.201 844.156 693.463 850.546 693.463ZM879.363 694.028V699.852C878.711 699.722 878.146 699.678 877.624 699.678C874.669 699.678 872.104 701.113 872.104 705.72V715.5H866.323V694.115H871.93V697.288C873.234 694.463 876.19 693.941 878.015 693.941C878.494 693.941 878.928 693.984 879.363 694.028ZM904.162 694.115L895.6 703.112L904.336 715.5H897.251L891.601 707.328L889.21 709.849V715.5H883.429V684.031H889.21V702.069L896.599 694.115H904.162Z" fill="white"/>
    <defs>
    <filter id="filter0_d_6386_11155" x="0.6586" y="0.580475" width="993.859" height="922.71" filterUnits="userSpaceOnUse" color-interpolation-filters="sRGB">
    <feFlood flood-opacity="0" result="BackgroundImageFix"/>
    <feColorMatrix in="SourceAlpha" type="matrix" values="0 0 0 0 0 0 0 0 0 0 0 0 0 0 0 0 0 0 127 0" result="hardAlpha"/>
    <feMorphology radius="56" operator="dilate" in="SourceAlpha" result="effect1_dropShadow_6386_11155"/>
    <feOffset/>
    <feGaussianBlur stdDeviation="87.7"/>
    <feComposite in2="hardAlpha" operator="out"/>
    <feColorMatrix type="matrix" values="0 0 0 0 0.109804 0 0 0 0 0.741176 0 0 0 0 0.247059 0 0 0 0.75 0"/>
    <feBlend mode="normal" in2="BackgroundImageFix" result="effect1_dropShadow_6386_11155"/>
    <feBlend mode="normal" in="SourceGraphic" in2="effect1_dropShadow_6386_11155" result="shape"/>
    </filter>
    </defs>
    </svg>
    