<svg width="159" height="172" viewBox="0 0 159 172" fill="none" xmlns="http://www.w3.org/2000/svg">
    <path d="M150.707 172L85.2933 172C38.1872 172 8.98835e-05 133.813 8.78245e-05 86.7068L8.72582e-05 73.7534C8.54777e-05 33.0205 33.0206 5.48794e-06 73.7535 3.70745e-06C120.596 1.65988e-06 158.57 37.9736 158.57 84.8164L158.57 86.7068L158.57 164.137C158.57 168.48 155.049 172 150.707 172Z" fill="#1CBD3F"/>
    <path d="M124.592 130.06C127.612 130.06 130.06 127.611 130.06 124.592L130.06 75.0695C130.06 44.54 105.311 19.791 74.7819 19.791C44.4117 19.791 19.7919 44.4109 19.7919 74.7811C19.7919 105.311 44.5409 130.06 75.0703 130.06H124.592Z" fill="white"/>
    <path fill-rule="evenodd" clip-rule="evenodd" d="M145.139 75.0708L145.139 124.593C145.139 135.941 135.94 145.14 124.592 145.14H75.0701C36.2125 145.14 4.71216 113.64 4.71216 74.7824C4.71216 36.0841 36.0833 4.71289 74.7816 4.71289C113.639 4.71289 145.14 36.2132 145.139 75.0708ZM130.06 124.593C130.06 127.613 127.612 130.061 124.592 130.061H75.0701C44.5406 130.061 19.7916 105.312 19.7916 74.7824C19.7916 44.4122 44.4115 19.7923 74.7816 19.7923C105.311 19.7923 130.06 44.5414 130.06 75.0708L130.06 124.593Z" fill="black"/>
    </svg>
    