<svg xmlns="http://www.w3.org/2000/svg" width="37" height="40" viewBox="0 0 37 40" fill="none">
    <path
        d="M35.0481 40L19.8356 40C8.88074 40 3.01294e-05 31.1193 2.96505e-05 20.1644L2.95189e-05 17.152C2.91048e-05 7.6792 7.67922 1.27626e-06 17.152 8.62197e-07C28.0457 3.86019e-07 36.8767 8.83107 36.8767 19.7248L36.8767 20.1644L36.8767 38.1714C36.8767 39.1813 36.058 40 35.0481 40Z"
        fill="#1CBD3F" />
    <path
        d="M28.975 30.2454C29.6773 30.2454 30.2466 29.6761 30.2466 28.9738L30.2466 17.457C30.2466 10.3571 24.4911 4.60156 17.3912 4.60156C10.3284 4.60156 4.6028 10.3271 4.6028 17.3899C4.6028 24.4898 10.3584 30.2454 17.4583 30.2454H28.975Z"
        fill="white" />
    <path fill-rule="evenodd" clip-rule="evenodd"
        d="M33.7534 17.46L33.7534 28.9768C33.7534 31.6158 31.614 33.7552 28.9749 33.7552H17.4581C8.4215 33.7552 1.09584 26.4295 1.09584 17.3929C1.09584 8.39328 8.39146 1.09766 17.3911 1.09766C26.4277 1.09766 33.7534 8.42331 33.7534 17.46ZM30.2465 28.9768C30.2465 29.679 29.6772 30.2483 28.9749 30.2483H17.4581C10.3583 30.2483 4.60269 24.4928 4.60269 17.3929C4.60269 10.3301 10.3282 4.60451 17.3911 4.60451C24.4909 4.60451 30.2465 10.3601 30.2465 17.46L30.2465 28.9768Z"
        fill="black" />
    <path fill-rule="evenodd" clip-rule="evenodd"
        d="M12.7999 19.0889C13.7683 19.0889 14.5533 18.3038 14.5533 17.3355C14.5533 16.3671 13.7683 15.582 12.7999 15.582C11.8315 15.582 11.0465 16.3671 11.0465 17.3355C11.0465 18.3038 11.8315 19.0889 12.7999 19.0889ZM20.4743 19.0889C21.4427 19.0889 22.2278 18.3038 22.2278 17.3355C22.2278 16.3671 21.4427 15.582 20.4743 15.582C19.506 15.582 18.7209 16.3671 18.7209 17.3355C18.7209 18.3038 19.506 19.0889 20.4743 19.0889Z"
        fill="black" />
</svg>