<svg xmlns="http://www.w3.org/2000/svg" width="48" height="48" viewBox="0 0 48 48" fill="none">
    <path
        d="M17.3965 38.4641C30.83 38.4641 38.1763 27.3309 38.1763 17.6766C38.1763 17.3604 38.1698 17.0457 38.1556 16.7323C39.585 15.6976 40.8186 14.4165 41.7986 12.949C40.49 13.531 39.0818 13.9227 37.6045 14.0993C39.1124 13.1948 40.27 11.7639 40.8161 10.0583C39.3825 10.9091 37.8141 11.5089 36.1786 11.8317C34.8458 10.4116 32.9485 9.52344 30.8476 9.52344C26.8144 9.52344 23.5438 12.7953 23.5438 16.8284C23.5438 17.4018 23.608 17.9593 23.7333 18.4943C17.6634 18.1888 12.281 15.2815 8.67883 10.8609C8.03005 11.9759 7.6888 13.2431 7.68993 14.5331C7.68993 17.0678 8.97923 19.3054 10.94 20.6146C9.78017 20.5791 8.64583 20.2658 7.63234 19.7008C7.63125 19.7314 7.63125 19.7613 7.63125 19.7941C7.63125 23.3323 10.1487 26.2865 13.4904 26.9559C12.8628 27.1269 12.2151 27.2133 11.5646 27.213C11.0949 27.213 10.637 27.1667 10.1921 27.0813C11.1219 29.9842 13.818 32.0966 17.0145 32.1557C14.5148 34.1156 11.366 35.283 7.94374 35.283C7.36156 35.2835 6.77986 35.2497 6.20166 35.1818C9.43389 37.2543 13.2718 38.4636 17.3969 38.4636"
        fill="white" />
</svg>